<mxfile host="app.diagrams.net" modified="2024-04-25T16:27:53.740Z" agent="Mozilla/5.0 (Windows NT 10.0; Win64; x64) AppleWebKit/537.36 (KHTML, like Gecko) Chrome/124.0.0.0 Safari/537.36" etag="J0YatUWC1dRvM_oxHNh9" version="24.3.0" type="github">
  <diagram name="Page-1" id="d41QwL7FVSSjeYJH4xqe">
    <mxGraphModel dx="1050" dy="618" grid="1" gridSize="10" guides="1" tooltips="1" connect="1" arrows="1" fold="1" page="1" pageScale="1" pageWidth="850" pageHeight="1100" math="0" shadow="0">
      <root>
        <mxCell id="0" />
        <mxCell id="1" parent="0" />
        <mxCell id="RWqy76KJAC-2ycBETAgh-7" style="edgeStyle=orthogonalEdgeStyle;rounded=0;orthogonalLoop=1;jettySize=auto;html=1;" edge="1" parent="1" source="RWqy76KJAC-2ycBETAgh-1">
          <mxGeometry relative="1" as="geometry">
            <mxPoint x="290" y="147.45000000000005" as="targetPoint" />
          </mxGeometry>
        </mxCell>
        <mxCell id="RWqy76KJAC-2ycBETAgh-1" value="" style="shape=image;verticalLabelPosition=bottom;labelBackgroundColor=default;verticalAlign=top;aspect=fixed;imageAspect=0;image=data:image/jpeg,/9j/4AAQSkZJRgABAQAAAQABAAD/2wCEAAkGBxAPDw0PDg4SDw4NEA8ODg8NDw8QDQ0NFRcYGRURFRMYHSggGBomHRUTITEiJSk3Li8uGh8zODMuOCguLi4BCgoKDg0OGhAQGDcdHiUrKysrMCstLS8tLSsrKy0rLS0uLS0tKystLSstLS0tLS0tLSsvKy0tKy0rLS0tLS0tLf/AABEIAOsA1gMBEQACEQEDEQH/xAAbAAADAAMBAQAAAAAAAAAAAAAAAQIEBQcDBv/EAEkQAAIBAwADCwULCwQDAAAAAAABAgMEEQUhMQYSEzJBUVJhcYGRBxSTodEVFiJCU3J0sbPB0xcjJDM1VIKUorLSYnOS4TRj8f/EABoBAQEAAwEBAAAAAAAAAAAAAAABAgQFAwb/xAA3EQEAAQICBQoGAQQDAQAAAAAAAQIDBBESFCExYQUTMkFRUnGBkfAVIjOhsdFCNFPB4UNy8SP/2gAMAwEAAhEDEQA/AO4gAAAAAAAAedxXhTjKdSShCOuUptKKXayxEzOUJMxEZy+U0lu9owbjb05Vn0pPg6fdlZfgjbowdU9KcmpXjKY6MZvnrvdvez4koUlycHTTeO2eTYpwluN+1r1Yu5O7Y1VfT95PjXdb+GpKC8I4PWLNuP4vKb1yd9TCqXlWXGrVJfOqTf1sy0aY6mOnVPW8JSb2vPaVCVRrZJrsbQyM3rDSNePFuKsfm1qkfqZjNFM9TLTq7fuzKG6e+p8W7q/xtVP70zCbFuf4s4vXI/k29h5Q7qDSrQp148urgqj71q/pPKrCUTu2PanF1xv2vt9AbqLa9+DTk4VsZdGrhVMcrjySXZ34NO5Yqt79zbt36a929uzxewAAAAAAAAAAAAAAAAAAJnNRTlJ4jFNtvYktrERmbnJd0mnZ3lVvLVGDfA0+RLptdJ+rYdezZi3HHrci9em5PDqads9ni9KltUjHfypTjDpShJQ8WsGMVRM5ZsppmIzmGO2ZMUtgS2RUtgS2AmFSwCM3FqUW4yi04yi2pRktjTWxkkdU3CbqndxdCu15zSjlS1Lh6a+NjkktWV3rlxzcRY0Pmp3Olh72nGjVvfXms2QAAAAAAAAAAAAAAAABo92lw6dhcNbZqNPunJKXqbPfDRnch4YmcrUuTs6zkvvvJ/oOnwau6kVKcpSVHfLKpxi8OSXSbT18y62c/F3Zz0I83QwlqMtOfJ9q1nU9aepp7GjSbrmO77QcLarTq0YqNKvvswWqNOqsZwuRNPZyYZ08LdmuMp3w5mKtRROcbpfJtmy1ktgS2BLYVLATAlsg99G38ratRrw41GanjpL40exrK7zGqmKqZpllTVozFUdTvlKopxjOLzGaUovnTWUzjTGTsxOawAAAAAAAAAAAAAAAAPmfKE/0F/7tP6zZwn1Gti/puYM6jlumeT3SEKloqOfzlvKalHlcJScoy7NbXcczF0TFel1S6eEriaNHsfUmq2nPPKdpGMpULaLTlTzVq4+K2sRj24y/DnN/B0TETU0MZXEzFL4Vs3WklsCWwpMCWBLZBLYEsK7tuWlmwsG9vmtv9nE5F36lXjLrWfp0+ENoeb0AAAAAAAAAAAAAAAAfM+UP/wAF/wC7T+tmzhPqNbF/TcubOo5b0tbqpRmqlKcqc47JQeH2da6jGqmKoyllTVNM5w29XdnfyjveHxyOUadNTffjV3HjGGtxOeT2nE3JjLNoJzbbcm3KTbbk25Nva23tZ7vB5tgS2FJgS2BLZAmwJbCpbA7tuU/Z+j/otv8A2RORe+pV4y61n6dPhDanm9AAAAAAAAAAAAAAAAHzm72hOpZONOnOpLhKb3tOEpyxr14Ws2MLMRczmcmviombeyM3Nnoi6/dLj+Xrf4nS5yjvR6w5vN192fSSeiLr90uP5et/iOco70esHN192fSUvQ91+53H8vW/xJzlHej1hebr7s+kpeh7v9zuP5et/iOco70esHN192fSSeh7v9zuf5at/iOco70esHN192fSUT0RdJNu0uEkm23b1kkltbe91Ic5R3o9TQq7s+ksBszYk2QS2BLYVLYEtgd43Kfs/R/0W3/sici99Srxl1rP06fCG1PN6AAAAAAAAAAAmc1FNyaSWttvCS62N4011ussabw7hSf/AKoyqL/lFNes96cNcnqeFWJtx1sV7ubLpVPRSMtUuMdbtl7+rLpVPRMapcNbtl7+7HpVPRSGqXDW7Y9/dj0qnopDVLhrdsvf5Y9Kp6KQ1W4a1bHv9selU9FIarcNatl7/rHpVPRSGq3DWrZe/wDsOlU9FIarcNatsfSG7qxnRrQjKpvp06kI5pSxvnFpFpw1yJiUqxNuYmHLDouclsCWwqWwJbAlsDvO5R40dYPmtLf7OJx78xTXVM9sutY226fCGb57Dr8DmfE7HH0bPM1Dz2HX4D4nY4+hzNRq8hzvwZY5Sw89f2k5mp7QqKWxp9ht27tFyM6Jzec0zG9R6IAAAA0+6LT9OygnL4dWafB0k8N/6m+SJ7WbM3J4PG9ei3HFzPS2mK91LfVqjazmNOOqlDsj9719Z07dqmiPlhy7l2q5PzS17PRglsCWwJbAlsipbAlsBNhUsCWyCWwE2FS2BLYEtgSQd43L/s2x+h0Ps0cXF/z83Xw/Qp8ISfGuoAAAjNp5Tw+otFdVFWlTOUkxE7JbK0uN+tfGW3r6z6PBYyL9OU9KN/7ad23oTwZBvPIAY2kbyNvSqVqnFpxcnzt8kV1t4XeZUUzVVFMMa6oppmqXHtJX07irOtVeZzeeqK5IrqR2aKIojRhxq65rq0pYrMmKWwJbAlsCWyKlsBNgSwqWAmBLZBLYVLYEtgS2BLIADvG5f9m2P0Oh9mji4v8An5uvh+hT4Qk+NdQskCIpZIqqNXeSUlybetcp62L02bkVx1fjrY106UZN0nnWuU+viYmM4c7cZR8V5Sr1qnQoJ/rJOrP5sdUU+9t/wm7g6Ns1NLG17IpfAM6DnkwJbAlsCWyKlsCWwJYVLATYEtkEthUtgS2BLYEsgAADvO5pY0dYp6mrOhnq/No4uLn6k+Lr4ePlp8IeZ8Y6pZIFkipyQLJirb6PqZpr/T8H2erB9RyZd08PEdmz9fZo36cq2SdB4uW7vbnf31SPJRhTpLw3z/v9R1MLTlbji5WKqzueD5xs2WulsCWwJbIqWwJbAlsKTAlsCWyCWwJbCk2BLYEtkCAAMnRtjK5rUaEONWnGmsfFT2y7EsvuJVVoxMyypp0pimOt32ulTpbyOpKKpxXVjGPA+a5Qu6Fiqe3Z6/6dyzTnVDWZPlm+WSBZIpZIERWfomeucepNff8Acdrka581dHhP7/w1cTGyJbI77UcX05W391dT569XHzVJpepI7NqMqIjg412c65niwGz0eaWwJbIqWwJbATYVLAlgJsglsCWwqWwJbAlsBEAAJeL1JLa3zAdY8ne5OVqvOrmOLipHe06b20Kb2t8036lq5Wjn4i9pfLTudDD2dH5qt76S+r76WFsj63znyHKOKi7c0ad0fl17NGjGcsXJznsWSKnJFIgRirK0bLFVdaa+/wC46HJVejiYjtiY/wA/4eOIjOhuT6tz3C6099KUulJy8Xk7kbIcOZzl5tlRLZFS2BLYEthUtgJgZ2jdCXV1rt7edSPTwo0/+csL1nnXcoo6Us6LddfRhvKfk7vpLLlQj1Sqzz/TBnjrdvi9tUucPfkp+Te++UtvSVvwxrdvj7811S5w9+SfybX3ylt6Wt+GTW7fH35mqXOHvyL8mt98pbelrfhjW7fH35mqXOHvyJ+TO++UtfS1vwxrdvj78zVLnD35F+TO/wDlLX0tb8Ma3b4+/M1W5w9+Q/Jnf/KWvpa34Y1u3x9+Zqtzh78nva+S+5b/AD1zRprnpKpVfg1Ek4unqhlGEq659/Z9juf3G2li1USdWtHXw1fDcPmLZHt29ZqXcTVVG2cobNrD00Ts2y2d3eZ+DDZyy5+w+cxvKOlE27W7rn9ft0bVnLbUwTjNkskCIpZJmpECIr2s3+cp/OXrNnA1ZYmieLC7HyS3x9m5bhNWO9lKPRbXgzuROxw5jKXm2BLYEtgS2BLChJtpJNttJJJttvYkuVgdI3KbhIQUa19FTqPXGg8OlT+f05dWzt2nPvYqZ2Uerfs4aI21+j7Kpcwh8FcmpKOxLmONfx9q1OW+eDoUWqp4PB375IrvZoTytV1Ufd68xHaPPpdFesnxW53YXmI7R59Lor1j4rc7sHMR2jz6XRXrHxW53YOYjtHn8uivWPi1zuwcxHaXn8uivWT4tc7sGrx2j3Ql0V6x8Xud2F1eO1Mr+XIkvEwq5WvTuiIWMPSxqtaUuM2/q8DQu4i5d6dWfvsetNFNO6Hnk8GZZIpECIpGKlkgWSK9LT9ZT+dH6zZwe3EUeMMLvQnwfQn2rlOJacpby6uodGvVx83fNr1YOzbnOiJ4ONcjKuY4sBszYJbAlsBMKlgff+TTQClm+qxzhuFsnsytUqv1xXZLqNHF3f4R5t3C2v5z5Pt7y4+LH+J/cfMcoY2YnmqJ8Z/x+3WtW/5SwjjNkAAAAALJFLJAskVOSBZJmpGKlkikQIilkgWSKWSKyNHLNWHVl+CZu8mU6WKo85+0vK/OVuW/PsnLcm8oFtwd/VfJWhTqrw3r9cGdTC1Z244OXiqcrk8XzbZsNdLYEsKlgCi20orMpNKK55PYiDu9nbRtrenShxaNOMF1tLGX2vWcDFX9Ciq574O3aojZTDBPkpnPbLoggAABZARipZIFkilkilkgRFIikQIilkxUskUskE5IrY6FhmU5dFY73/8ADt8h287tVfZGXr/41MXV8sQ3B9M0HwflSsvg21wlxXKjP+L4Uf7ZeJu4OrbNLSxlOyKnPGzfaCWwpMCWwMvQyzdWaex3Nun2cJEwr6M+EsqOlHjH5dxv+J3o+W5Sn/4T4w71npNafOtwAACyQLJFLJFLJAskVOSKRAjFQRSyQTkilkilkgWSKRFb7RVLe0k+Wfwn37PVg+v5Jsc3homd9W313fbJzMTXpV+GxmHTa7A07o1XVtWoPVwkfgyfxai1xl3NIzt16FUVMLlGnTNLiNxSlTlOE4uM4ScJxe2Mk8NHYiYmM4ceYmJyl5MolgS2QZmhH+l2f0m3+0iY3OhPhLOjpR4x+Xcb/id6PluU/oecO9Z6TXHzrbACIpZIJyYqWSKWSBEUskzUiBEUskUskCyYqWSKRAiK9bShwk4x5Hrl1R5TZwmHnEXqbfr4dfvtYXa9CmZfSpH3MRlshxwUAHxu7jck7nNzbJecJYqQ1JV4rY0+mlq612G3h7+h8tW5q4ixpfNTv/LmFWEoSlGcXGcXiUZpxlF8zT1pnQic9sOdOzY82wJbAy9Bv9LsvpNt9pExudCfCWdHSjxj8u53/E70fLcp/Q84d6z0mtyfONsiKWSKWSBZIpZIpECIpGKlkgWSKWSKnJAskUiKRBUIttJLLexLazKiiquqKaYzmUmYiM5b7R1nwUdfHlt6lzH1/JuB1ajOrpTv4cHMv3ucnZuZZ0ngAAAA12ldB212v0ihGo0sKeuNRLmU44aXeZ0XKqOjLCu3TX0oaCr5ObKTyp14LmjUg1/VFs94xdbwnCUPP8mtn8tc/wDOj+GNbr7I9+ZqlHbPvyetp5O7SlUpVY1bhypVIVYqU6W9coSUkn8DZqJOKrmMsoWMLRExOcvptIcTvRxeVPoecN+x0msyfONwskVOSBZJmpGKnBZcVztIyt0xVXTTPXMR90mcomWz9zIc8vFew+h+DWO9PrH6aes1dg9zIdKXjH2E+DWO9PrH6XWa+yC9y4dKXjH2D4LY70+sfo1qvsge5cOlLxj7B8Fsd6fWP0a1X2QXuVDpS8Y+wnwSx3p9Y/RrVfZA9yqfSn4x9g+CWO9PrH6XW6+yB7k0+lPxj7CfBLHeq9Y/RrdfZBe5FPpT8Y+wfA8P3qvWP0a3X2QPcin0p+MfYPgeH71XrH6Nbr7INaJp88n2tfci08iYeJ2zM+cf4iCcXWyqFvCHEil18r7zoWMLZsRlbpy/PrveFdyqvpS9TYYAAAAAAAAAAAxdI8TvRzuVPoecPax02ryfNN0skUskCIpZJmpJ42bUIqmJzgyevnVTpy8TY17Ed+WHNUdhed1OnLxJr2I/uSvNUdhed1OnLxJr2I/uSvM0dheeVOnLxJr+J/uSczR2F55U+Ul4k1/E/wByV5mjsLzyp8pLxJr+J/uSczR3W+tJN06betuMW3zvB9fg6pqw9FVU5zNMfhzLsRFcxHa9TYYAAAAAAAAAAAAAAAAMXSP6vvRzeVf6fzh7WOm1WT5pvJyRSIEYqCKWSCckUskUJNvCWW9iWtsU0zVOjTGck5Rtl7SsaqWeDeOppvw2m3VydiojObc/b8Z5vOL9vPLNjM0ZexEH0tl+qpfMj9R9zgf6a3/1p/DkXfqVeMvY2nmAAAAAAAAAAAAAAAAxdJfq+9HN5V/p58Ye+H6bUHzDeLJM1IgRFLJFLJAsmKlkitxoeilDf/GnnXzJPGPUfUcjYemmzzvXVn6ROTn4quZq0exsDstVqNNUEnGa1b7VLrfI/rPmuXMPTTNN2nr2T/j34N/CVzMTTLVnBbj6Wz/VUvmR+o+5wP8ATW/+tP4ci706vGXsbTzAAAAAAAAAAAAAAAAeVzT38JR5WtXbyGvirPPWaqI3zu8d8M7dWjVEtEz42dm90yMVLJAskUskVOSBZIpEVt9D3K3vBt4abcetPX7T6TkXF0zRzFU5TGeXGJ2+rQxVuc9OGzO802l0xcqTUIvKjltrZvuY+W5ZxdN2qLdE5xTv8f8ATo4W3NMaU9bBpU3OUYrbJ4/7OTZtVXa4t075nL34b2zVVFMTMvp4xwklsSwuw+9ppimIiOpxpnOczMkAAAAAAAAAAAAAAAAAGvv7LOZwWv40efrXWcTlHk6a5m7ajb1x28Y4/nx37Vi9l8tTVs+dlupyRSyRSyRSyYhEUgAD0debWHOTXM5PB7TiL0xozXMx4yxiimJzyRCLbSSy3sS2nnRRVXMU0xnMrMxEZy3mjrHg1vpa5vwiuY+s5N5O1eNOvpz9o7P37z51+/p7I3M46rWAAAAAAAAAAAAAAAAAAAAY9xZwqbVh9Jan/wBmlicBZxG2qMp7Y3/783rbvVUbmuraLmuK1JeDOJe5GvU7bc6Uek/r7tunFUzv2MOrRlHjRa62njxOZdsXbXTpmPLZ67mxTXTVul5ZPDNmCBABMx7U7WpLiwb68YXizatYPEXehRM/b7zlDCq7RTvlm0NESfHkkuaOt+J1LHIdydt2rLw2z+vy1q8XEdGM2yt7aFNfBWOd7ZPvO7hsJZw8ZW6cuPX6tSu7VXvl7Gy8wAAAAAAAAAAAAAAAAAAAAAAAAB5zoQlthF9sUzxrw1mvpURPjEM4uVRul5uxpfJo8J5Ows/8cMufud4KypfJx71kscn4WP8Ajj0Oeud56wpRjxYpdiSNiizbo6FMR4Rkwmuqd8rPRiAAAAAAAAAAAAAAAAAAAAAAAAAAAAAAAAAAAAAAAAAAAAAAAAAAAAAAAAAAAAMgLfATvwFwgBwgC4QA4QB8IA+EAN+BW+AeQAAAAAAAAAAAAAAAAAAATAhgQwJYCbAQCyAAMBoCkBSApAWgGAAAAAAAAB//2Q==;" vertex="1" parent="1">
          <mxGeometry x="80" y="120" width="50" height="54.9" as="geometry" />
        </mxCell>
        <mxCell id="RWqy76KJAC-2ycBETAgh-2" value="Cloud&#xa;Storage" style="sketch=0;html=1;verticalAlign=top;labelPosition=center;verticalLabelPosition=bottom;align=center;spacingTop=-6;fontSize=11;fontStyle=1;fontColor=#999999;shape=image;aspect=fixed;imageAspect=0;image=data:image/svg+xml,PHN2ZyB4bWxucz0iaHR0cDovL3d3dy53My5vcmcvMjAwMC9zdmciIHhtbG5zOnY9Imh0dHBzOi8vdmVjdGEuaW8vbmFubyIgd2lkdGg9IjIwIiBoZWlnaHQ9IjE2IiB2aWV3Qm94PSIwIDAgMjAgMTYiPiYjeGE7CTxzdHlsZSB0eXBlPSJ0ZXh0L2NzcyI+JiN4YTsJLnN0MHtmaWxsOiM0Mjg1ZjQ7fSYjeGE7CS5zdDF7ZmlsbDojNjY5ZGY2O30mI3hhOwkuc3Qye2ZpbGw6I2FlY2JmYTt9JiN4YTsJLnN0M3tmaWxsOiNmZmY7fSYjeGE7CTwvc3R5bGU+JiN4YTsJPHBhdGggY2xhc3M9InN0MiIgZD0iTTAgMGgyMHY3SDB6Ii8+JiN4YTsJPHBhdGggY2xhc3M9InN0MSIgZD0iTTE4IDBoMnY3aC0yeiIvPiYjeGE7CTxwYXRoIGNsYXNzPSJzdDAiIGQ9Ik0xOCA3bDItN2gtMnoiLz4mI3hhOwk8cGF0aCBjbGFzcz0ic3QxIiBkPSJNMCAwaDJ2N0gweiIvPiYjeGE7CTxnIGNsYXNzPSJzdDMiPiYjeGE7CQk8cGF0aCBkPSJNNCAzaDZ2MUg0eiIvPiYjeGE7CQk8cmVjdCB4PSIxMyIgeT0iMiIgd2lkdGg9IjMiIGhlaWdodD0iMyIgcng9IjEuNSIvPiYjeGE7CTwvZz4mI3hhOwk8cGF0aCBjbGFzcz0ic3QyIiBkPSJNMCA5aDIwdjdIMHoiLz4mI3hhOwk8cGF0aCBjbGFzcz0ic3QxIiBkPSJNMTggOWgydjdoLTJ6Ii8+JiN4YTsJPHBhdGggY2xhc3M9InN0MCIgZD0iTTE4IDE2bDItN2gtMnoiLz4mI3hhOwk8cGF0aCBjbGFzcz0ic3QxIiBkPSJNMCA5aDJ2N0gweiIvPiYjeGE7CTxnIGNsYXNzPSJzdDMiPiYjeGE7CQk8cGF0aCBkPSJNNCAxMmg2djFINHoiLz4mI3hhOwkJPHJlY3QgeD0iMTMiIHk9IjExIiB3aWR0aD0iMyIgaGVpZ2h0PSIzIiByeD0iMS41Ii8+JiN4YTsJPC9nPiYjeGE7PC9zdmc+;" vertex="1" parent="1">
          <mxGeometry x="300" y="119.99999999999999" width="60" height="48.57" as="geometry" />
        </mxCell>
        <mxCell id="RWqy76KJAC-2ycBETAgh-5" value="" style="shape=mxgraph.gcp2.doubleRect;strokeColor=#dddddd;shadow=1;strokeWidth=1;rounded=1;absoluteArcSize=1;arcSize=2;" vertex="1" parent="1">
          <mxGeometry x="470" y="120" width="170" height="60" as="geometry" />
        </mxCell>
        <mxCell id="RWqy76KJAC-2ycBETAgh-6" value="&lt;font color=&quot;#000000&quot;&gt;Name&lt;/font&gt;&lt;br&gt;Cloud Data Fusion" style="editableCssRules=.*;html=1;fontColor=#999999;shape=image;verticalLabelPosition=middle;verticalAlign=middle;labelPosition=right;align=left;spacingLeft=20;part=1;points=[];imageAspect=0;image=data:image/svg+xml,PHN2ZyB4bWxucz0iaHR0cDovL3d3dy53My5vcmcvMjAwMC9zdmciIHhtbG5zOnY9Imh0dHBzOi8vdmVjdGEuaW8vbmFubyIgd2lkdGg9IjM3Ny4wNDk2OTgzMjc3ODkyNiIgaGVpZ2h0PSIzNzcuMjkxNTcwNzE1Nzg5NzYiIHZpZXdCb3g9IjAuMTMxMDAwNTE4Nzk4ODI4MTIgLTAuMTIxMDAwMDA2Nzk0OTI5NSA5OS43NjEwMDE1ODY5MTQwNiA5OS44MjQ5OTY5NDgyNDIxOSI+JiN4YTs8c3R5bGUgdHlwZT0idGV4dC9jc3MiPiYjeGE7CS5zdDB7ZmlsbDojNjY5ZGY2O30mI3hhOwkuc3Qxe2ZpbGw6IzQyODVmNDt9JiN4YTsJLnN0MntmaWxsOiNhZWNiZmE7fSYjeGE7PC9zdHlsZT4mI3hhOwk8cGF0aCBjbGFzcz0ic3QwIiBkPSJNODAuNTkzIDE5LjE4djIwLjE5OWgxOS4yOTlWOS41M2MwLTIuNTM3LS45NzktNC44NDYtMi41OC02LjU2OHptLTkuOTA4IDYxLjIyNUgxOS40MzFMMy40NSA5Ny4zMzdjMS42OTUgMS40NzQgMy45MDggMi4zNjcgNi4zMzEgMi4zNjdoNzAuNTU1YzIuODczIDAgNS40NTMtMS4yNTYgNy4yMjEtMy4yNDh6Ii8+JiN4YTsJPHBhdGggY2xhc3M9InN0MSIgZD0iTTg3LjU3MyA5Ni40MzdjMS41MDEtMS43MDEgMi40MTMtMy45MzUgMi40MTMtNi4zODJWNjAuMjA0SDcwLjY4NXYyMC4yMDF6Ii8+JiN4YTsJPHBhdGggY2xhc3M9InN0MiIgZD0iTTE5LjQzMSA4MC40MDVWMjkuMzRoMjAuNTc4VjEwLjA0SDkuNzgxYy01LjMzIDAtOS42NSA0LjMyMS05LjY1IDkuNjV2NzAuMzY1Yy4wMDEgMi45MDYgMS4yODYgNS41MTMgMy4zMiA3LjI4MXptNzcuODgtNzcuNDQzQzk1LjU1IDEuMDY2IDkzLjAzNi0uMTIgOTAuMjQ0LS4xMjFINTkuOTUxVjE5LjE4aDIwLjY0M3oiLz4mI3hhOzwvc3ZnPg==;" vertex="1" parent="RWqy76KJAC-2ycBETAgh-5">
          <mxGeometry width="30" height="30" relative="1" as="geometry">
            <mxPoint x="15" y="15" as="offset" />
          </mxGeometry>
        </mxCell>
        <mxCell id="RWqy76KJAC-2ycBETAgh-8" style="edgeStyle=orthogonalEdgeStyle;rounded=0;orthogonalLoop=1;jettySize=auto;html=1;entryX=-0.038;entryY=0.407;entryDx=0;entryDy=0;entryPerimeter=0;" edge="1" parent="1" source="RWqy76KJAC-2ycBETAgh-2" target="RWqy76KJAC-2ycBETAgh-5">
          <mxGeometry relative="1" as="geometry" />
        </mxCell>
        <mxCell id="RWqy76KJAC-2ycBETAgh-14" value="" style="edgeStyle=orthogonalEdgeStyle;rounded=0;orthogonalLoop=1;jettySize=auto;html=1;" edge="1" parent="1" source="RWqy76KJAC-2ycBETAgh-9" target="RWqy76KJAC-2ycBETAgh-12">
          <mxGeometry relative="1" as="geometry" />
        </mxCell>
        <mxCell id="RWqy76KJAC-2ycBETAgh-9" value="" style="strokeColor=#dddddd;shadow=1;strokeWidth=1;rounded=1;absoluteArcSize=1;arcSize=2;" vertex="1" parent="1">
          <mxGeometry x="500" y="310" width="130" height="60" as="geometry" />
        </mxCell>
        <mxCell id="RWqy76KJAC-2ycBETAgh-10" value="BigQuery" style="editableCssRules=.*;html=1;fontColor=#999999;shape=image;verticalLabelPosition=middle;verticalAlign=middle;labelPosition=right;align=left;spacingLeft=20;part=1;points=[];imageAspect=0;image=data:image/svg+xml,PHN2ZyB4bWxucz0iaHR0cDovL3d3dy53My5vcmcvMjAwMC9zdmciIHhtbG5zOnY9Imh0dHBzOi8vdmVjdGEuaW8vbmFubyIgd2lkdGg9IjIwLjAwMTA0NTIyNzA1MDc4IiBoZWlnaHQ9IjIwLjAwMTA0NTIyNzA1MDc4IiBmaWxsLXJ1bGU9ImV2ZW5vZGQiIHZpZXdCb3g9IjAgMCAyMC4wMDEwNDUyMjcwNTA3OCAyMC4wMDEwNDUyMjcwNTA3OCI+JiN4YTsJPHN0eWxlIHR5cGU9InRleHQvY3NzIj4mI3hhOwkuc3Qwe2ZpbGw6I2FlY2JmYTt9JiN4YTsJLnN0MXtmaWxsOiM2NjlkZjY7fSYjeGE7CS5zdDJ7ZmlsbDojNDI4NWY0O30mI3hhOwk8L3N0eWxlPiYjeGE7CTxwYXRoIGNsYXNzPSJzdDAiIGQ9Ik00LjczIDguODN2Mi42M2E0LjkxIDQuOTEgMCAwIDAgMS43MSAxLjc0VjguODN6Ii8+JiN4YTsJPHBhdGggY2xhc3M9InN0MSIgZD0iTTcuODkgNi40MXY3LjUzQTcuNjIgNy42MiAwIDAgMCA5IDE0YTggOCAwIDAgMCAxIDBWNi40MXoiLz4mI3hhOwk8cGF0aCBjbGFzcz0ic3QwIiBkPSJNMTEuNjQgOS44NnYzLjI5YTUgNSAwIDAgMCAxLjctMS44MlY5Ljg2eiIvPiYjeGE7CTxwYXRoIGNsYXNzPSJzdDIiIGQ9Ik0xNS43NCAxNC4zMmwtMS40MiAxLjQyYS40Mi40MiAwIDAgMCAwIC42bDMuNTQgMy41NGEuNDIuNDIgMCAwIDAgLjU5IDBsMS40My0xLjQzYS40Mi40MiAwIDAgMCAwLS41OWwtMy41NC0zLjU0YS40Mi40MiAwIDAgMC0uNiAwIi8+JiN4YTsJPHBhdGggY2xhc3M9InN0MSIgZD0iTTkgMGE5IDkgMCAxIDAgMCAxOEE5IDkgMCAxIDAgOSAwbTAgMTUuNjlhNi42OCA2LjY4IDAgMCAxIC4wMDctMTMuMzYgNi42OCA2LjY4IDAgMCAxIDQuNzI3IDExLjQwM0E2LjY4IDYuNjggMCAwIDEgOSAxNS42OSIvPiYjeGE7PC9zdmc+;" vertex="1" parent="RWqy76KJAC-2ycBETAgh-9">
          <mxGeometry width="30" height="30" relative="1" as="geometry">
            <mxPoint x="15" y="15" as="offset" />
          </mxGeometry>
        </mxCell>
        <mxCell id="RWqy76KJAC-2ycBETAgh-11" style="edgeStyle=orthogonalEdgeStyle;rounded=0;orthogonalLoop=1;jettySize=auto;html=1;entryX=0.428;entryY=0.053;entryDx=0;entryDy=0;entryPerimeter=0;" edge="1" parent="1" source="RWqy76KJAC-2ycBETAgh-5" target="RWqy76KJAC-2ycBETAgh-9">
          <mxGeometry relative="1" as="geometry" />
        </mxCell>
        <mxCell id="RWqy76KJAC-2ycBETAgh-20" style="edgeStyle=orthogonalEdgeStyle;rounded=0;orthogonalLoop=1;jettySize=auto;html=1;" edge="1" parent="1" source="RWqy76KJAC-2ycBETAgh-12">
          <mxGeometry relative="1" as="geometry">
            <mxPoint x="390" y="486.845" as="targetPoint" />
          </mxGeometry>
        </mxCell>
        <mxCell id="RWqy76KJAC-2ycBETAgh-12" value="Looker" style="sketch=0;html=1;verticalAlign=top;labelPosition=center;verticalLabelPosition=bottom;align=center;spacingTop=-6;fontSize=11;fontStyle=1;fontColor=#999999;shape=image;aspect=fixed;imageAspect=0;image=data:image/svg+xml,PHN2ZyB4bWxucz0iaHR0cDovL3d3dy53My5vcmcvMjAwMC9zdmciIGlkPSJzdmc4OTgwMSIgdmVyc2lvbj0iMS4xIiB2aWV3Qm94PSIwIDAgMjA4LjA1NjU1IDMzNC42MTMxNiIgaGVpZ2h0PSIzMzQuNjEzMTZtbSIgd2lkdGg9IjIwOC4wNTY1NW1tIj4mI3hhOyAgJiN4YTsgIDxkZWZzIGlkPSJkZWZzODk3OTgiLz4mI3hhOyAgPGcgdHJhbnNmb3JtPSJ0cmFuc2xhdGUoLTQuMjQ2MjUyNCwxNS42NzE5MTEpIiBpZD0ibGF5ZXIxIj4mI3hhOyAgICA8cGF0aCBpZD0icGF0aDkxODAyIiB0cmFuc2Zvcm09InNjYWxlKDAuMjY0NTgzMzMpIiBkPSJtIDQwOS4yMjI2Niw0MTkuMDk5NjEgYyAtMzYuNjA4MTEsMCAtNzIuMDc2NjcsNS4wNzUzIC0xMDUuNzUzOTEsMTQuNTMxMjUgbCA0OS4wMzUxNiwxMjAuMDQxMDIgYyAxOC4yNjE3MiwtMy45Mzg5OSAzNy4yMjE5NiwtNi4wNjgzNiA1Ni43MTg3NSwtNi4wNjgzNiAxNDYuOTM1MTQsMCAyNjQuNjc3NzMsMTE3LjczNDc3IDI2NC42Nzc3MywyNjQuNjY5OTIgMCwxNDYuOTM1MTQgLTExNy43NDI1OSwyNjQuNjY5OTYgLTI2NC42Nzc3MywyNjQuNjY5OTYgLTE0Ni45MzUxNiwwIC0yNjQuNjY5OTEsLTExNy43MzQ4MiAtMjY0LjY2OTkzLC0yNjQuNjY5OTYgMCwtOTkuMTg3NjMgNTMuNjg5ODMsLTE4NS4wMDU5NiAxMzMuNzU1ODYsLTIzMC4zNDc2NiBMIDIyOS42MjY5NSw0NjIuNzUgQyAxMDMuMDI0Nyw1MjguMjI0NzQgMTYuMDQ4ODI3LDY2MC41MDUyMyAxNi4wNDg4MjgsODEyLjI3MzQ0IGMgMi4zZS01LDIxNi4zODM3NiAxNzYuNzkwMDYyLDM5My4xNzM4NiAzOTMuMTczODMyLDM5My4xNzM4NiAyMTYuMzgzNzMsMCAzOTMuMTgxNjQsLTE3Ni43OTAxIDM5My4xODE2NCwtMzkzLjE3Mzg2IDNlLTUsLTIxNi4zODM3OCAtMTc2Ljc5Nzg3LC0zOTMuMTczODMgLTM5My4xODE2NCwtMzkzLjE3MzgzIHoiIHN0eWxlPSJjb2xvcjojMDAwMDAwO29wYWNpdHk6MTtmaWxsOiM1OTg2ZjI7ZmlsbC1vcGFjaXR5OjE7c3Ryb2tlLXdpZHRoOjMuNzc5NTM7c3Ryb2tlLWxpbmVqb2luOnJvdW5kOy1pbmtzY2FwZS1zdHJva2U6bm9uZSIvPiYjeGE7ICAgIDxwYXRoIGQ9Im0gMTg5Ljk0MzM2LDg2LjI1IGMgLTk1LjEzMDMzMSwwIC0xNzMuMTc5Njg4LDc4LjA1NTIyIC0xNzMuMTc5Njg4LDE3My4xODU1NSAtNmUtNiw5NS4xMzAzMyA3OC4wNDkzNTMsMTczLjE3OTY4IDE3My4xNzk2ODgsMTczLjE3OTY4IDkuMDE2MTgsMCAxNy44NzU4LC0wLjcwODMyIDI2LjUzMzIsLTIuMDU4NTkgbCAtMzQuODI4MTIsLTg1LjI2NTYyIGMgLTQ0LjE1NzMsLTQuMDg2NjkgLTc3Ljk1NTA4LC00MC41MDcwNSAtNzcuOTU1MDgsLTg1Ljg1NTQ3IDAsLTQ4LjE1MDM5IDM4LjA5OTYyLC04Ni4yNTU4NiA4Ni4yNSwtODYuMjU1ODYgMTMuMTU5NzcsMCAyNS41NTg4OCwyLjg2MjQ2IDM2LjY0NDUzLDcuOTgyNDIgbCA2NC41NTQ2OSwtNjEuOTE5OTIgQyAyNjIuNjA4MzcsOTguNTMzOTEgMjI3LjYyOTI5LDg2LjI1IDE4OS45NDMzNiw4Ni4yNSBaIG0gMTM4Ljg4ODY3LDcwLjE2MjExIC02My40Mjc3Myw2MC44MzU5NCBjIDYuODc2MzgsMTIuNDI2NzggMTAuNzg5MDYsMjYuNzg4MTUgMTAuNzg5MDYsNDIuMTg3NSAwLDIxLjc2NzEyIC03LjgwNDE1LDQxLjQ2NTQgLTIwLjc4NTE2LDU2LjUzMzIgbCAzNC41MjM0NCw4NC41MTk1MyBjIDQ0LjE3Mzg3LC0zMS40ODc1MSA3My4xOTE0MSwtODMuMDc4OTIgNzMuMTkxNDEsLTE0MS4wNTI3MyAwLC0zOC40ODM1NSAtMTIuNzgyLC03NC4xNjUzMiAtMzQuMjkxMDIsLTEwMy4wMjM0NCB6IiB0cmFuc2Zvcm09InNjYWxlKDAuMjY0NTgzMzMpIiBzdHlsZT0iY29sb3I6IzAwMDAwMDtvcGFjaXR5OjE7ZmlsbDojNmY5OGY0O2ZpbGwtb3BhY2l0eToxO3N0cm9rZS13aWR0aDozLjc3OTUzO3N0cm9rZS1saW5lam9pbjpyb3VuZDstaW5rc2NhcGUtc3Ryb2tlOm5vbmUiIGlkPSJwYXRoOTE3OTgiLz4mI3hhOyAgICA8cGF0aCBpZD0icGF0aDg5OTI4IiB0cmFuc2Zvcm09InNjYWxlKDAuMjY0NTgzMzMpIiBkPSJtIDQwNi4xMzY3MiwtNTkuMjMyNDIyIGMgLTU4LjgxNTQ3LDhlLTYgLTEwNy4xMDM1Miw0OC4yODgwNDUgLTEwNy4xMDM1MiwxMDcuMTAzNTE2IDAsMTguNDk0NDUxIDQuNzgxMDEsMzUuOTQ1MDE3IDEzLjE1NjI1LDUxLjE4MzU5NCBsIDQ0LjMxMjUsLTQyLjUwMzkwNyBjIC0wLjQ3NTY3LC0yLjgyMDc3NSAtMC43NzUzOSwtNS43MDc1NjQgLTAuNzc1MzksLTguNjc5Njg3IDAsLTI4LjE3NjM4IDIyLjIzMzc4LC01MC40MTAxNTI1IDUwLjQxMDE2LC01MC40MTAxNTY1IDI4LjE3NjM4LC00ZS02IDUwLjQxMDE1LDIyLjIzMzc3MDUgNTAuNDEwMTYsNTAuNDEwMTU2NSAwLDI4LjE3NjM4MSAtMjIuMjMzNzgsNTAuNDEyMTEzIC01MC40MTAxNiw1MC40MTIxMDkgLTUuMDY4NjksLTEwZS03IC05LjkzNDE3LC0wLjc0NTYzMSAtMTQuNTIzNDQsLTIuMDg5ODQ0IGwgLTQzLjM2MTMzLDQxLjU5MTgwMSBjIDE2LjczMjIzLDEwLjg0Nzk1IDM2LjYxMTIzLDE3LjE4OTQ1IDU3Ljg4NDc3LDE3LjE4OTQ1IDU4LjgxNTQ5LDEwZS02IDEwNy4xMDM1MSwtNDguMjg4MDQgMTA3LjEwMzUxLC0xMDcuMTAzNTE2IDAsLTU4LjgxNTQ4MyAtNDguMjg4MDIsLTEwNy4xMDM1MjMgLTEwNy4xMDM1MSwtMTA3LjEwMzUxNiB6IiBzdHlsZT0iY29sb3I6IzAwMDAwMDtvcGFjaXR5OjE7ZmlsbDojZDZlM2ZiO2ZpbGwtb3BhY2l0eToxO3N0cm9rZS13aWR0aDozLjc3OTUzO3N0cm9rZS1saW5lam9pbjpyb3VuZDstaW5rc2NhcGUtc3Ryb2tlOm5vbmUiLz4mI3hhOyAgPC9nPiYjeGE7PC9zdmc+;" vertex="1" parent="1">
          <mxGeometry x="536" y="440" width="58" height="93.69" as="geometry" />
        </mxCell>
        <mxCell id="RWqy76KJAC-2ycBETAgh-15" value="" style="sketch=0;outlineConnect=0;fontColor=#232F3E;gradientColor=none;fillColor=#8C4FFF;strokeColor=none;dashed=0;verticalLabelPosition=bottom;verticalAlign=top;align=center;html=1;fontSize=12;fontStyle=0;aspect=fixed;pointerEvents=1;shape=mxgraph.aws4.opensearch_dashboards;" vertex="1" parent="1">
          <mxGeometry x="610" y="475" width="78" height="59" as="geometry" />
        </mxCell>
        <mxCell id="RWqy76KJAC-2ycBETAgh-16" value="&lt;b&gt;Extract Data&lt;/b&gt;" style="text;html=1;align=center;verticalAlign=middle;whiteSpace=wrap;rounded=0;" vertex="1" parent="1">
          <mxGeometry x="160" y="150" width="60" height="30" as="geometry" />
        </mxCell>
        <mxCell id="RWqy76KJAC-2ycBETAgh-17" value="&lt;b&gt;Transform and Load Data&lt;/b&gt;" style="text;html=1;align=center;verticalAlign=middle;whiteSpace=wrap;rounded=0;" vertex="1" parent="1">
          <mxGeometry x="580" y="220" width="60" height="30" as="geometry" />
        </mxCell>
        <mxCell id="RWqy76KJAC-2ycBETAgh-18" value="" style="outlineConnect=0;dashed=0;verticalLabelPosition=bottom;verticalAlign=top;align=center;html=1;shape=mxgraph.aws3.users;fillColor=#D2D3D3;gradientColor=none;" vertex="1" parent="1">
          <mxGeometry x="320" y="460" width="66" height="63" as="geometry" />
        </mxCell>
        <mxCell id="RWqy76KJAC-2ycBETAgh-21" value="" style="rounded=1;whiteSpace=wrap;html=1;" vertex="1" parent="1">
          <mxGeometry x="320" y="250" width="120" height="60" as="geometry" />
        </mxCell>
        <mxCell id="RWqy76KJAC-2ycBETAgh-22" value="&lt;b&gt;Airflow&lt;/b&gt;" style="rounded=1;whiteSpace=wrap;html=1;" vertex="1" parent="1">
          <mxGeometry x="60" y="20" width="620" height="80" as="geometry" />
        </mxCell>
        <mxCell id="RWqy76KJAC-2ycBETAgh-23" value="Cloud&#xa;Composer" style="sketch=0;html=1;verticalAlign=top;labelPosition=center;verticalLabelPosition=bottom;align=center;spacingTop=-6;fontSize=11;fontStyle=1;fontColor=#999999;shape=image;aspect=fixed;imageAspect=0;image=data:image/svg+xml,PHN2ZyB4bWxucz0iaHR0cDovL3d3dy53My5vcmcvMjAwMC9zdmciIHhtbG5zOnY9Imh0dHBzOi8vdmVjdGEuaW8vbmFubyIgd2lkdGg9IjE0LjY0MDAwMDM0MzMyMjc1NCIgaGVpZ2h0PSIyMCIgdmlld0JveD0iMCAwIDE0LjY0MDAwMDM0MzMyMjc1NCAyMCI+JiN4YTsJPHN0eWxlIHR5cGU9InRleHQvY3NzIj4mI3hhOwkuc3Qwe2ZpbGw6I2FlY2JmYTt9JiN4YTsJLnN0MXtmaWxsOiM0Mjg1ZjQ7fSYjeGE7CTwvc3R5bGU+JiN4YTsJPHBhdGggY2xhc3M9InN0MCIgZD0iTTAgMGgxNC42M3YzLjk0aC01LjN2NS4zM0g1LjM1VjMuOTZIMHoiLz4mI3hhOwk8cGF0aCBjbGFzcz0ic3QxIiBkPSJNMy45NSAxMC42N2g1LjM0VjIwSDUuMzV2LTUuMzVIMFY1LjM3aDMuOTV6TTE0LjY0IDIwSDEwLjdWNS4zNmgzLjk0eiIvPiYjeGE7CTxwYXRoIGNsYXNzPSJzdDAiIGQ9Ik0wIDE2LjA2aDMuOTJWMjBIMHoiLz4mI3hhOzwvc3ZnPg==;" vertex="1" parent="1">
          <mxGeometry x="80" y="30" width="32" height="42" as="geometry" />
        </mxCell>
      </root>
    </mxGraphModel>
  </diagram>
</mxfile>
